# xmcd
# Track frame offsets:
# 150
# 11792
# 22004
# 32790
# 43758
# 54377
# 64787
# 73662
# 86335
# 97875
# 110828
# 121844
# 133114
# 144954
# 155218
# 166028
#
# Disc length: 2355 seconds
# Revision: 0
# Processed by: cddbd v1.5.1PL2 Copyright (c) Steve Scherf et al.
# Submitted via: VisiTrax 2.10.0.248 - For more info visit www.synapsa.com
#
DISCID=d9093110
DTITLE=Patsey Cline - Let The Teardrops Fall
DYEAR=2004
DGENRE=Country
TTITLE0=Let The Teardrops Fall
TTITLE1=How Can I Face Tomorrow
TTITLE2=I Can See An Angel
TTITLE3=A Stranger In My Arms
TTITLE4=Stop, Look and Listen
TTITLE5=I Love You Honey
TTITLE6=Try Again
TTITLE7=Yes, I Understand
TTITLE8=I've Loved and Lost Again
TTITLE9=If I Could See the World: (Through The Eyes Of A Child)
TTITLE10=Stop The World: (And Let Me Off)
TTITLE11=Cry Not For Me
TTITLE12=If I Could Only Stay Asleep
TTITLE13=Walking Dream
TTITLE14=I Cried All The Way To The Alter
TTITLE15=Honky Tonk Merry Go Round
EXTD=
EXTT0=
EXTT1=
EXTT2=
EXTT3=
EXTT4=
EXTT5=
EXTT6=
EXTT7=
EXTT8=
EXTT9=
EXTT10=
EXTT11=
EXTT12=
EXTT13=
EXTT14=
EXTT15=
PLAYORDER=
